<?xml version="1.0" encoding="UTF-8"?>
<svg width="35pt" height="35pt" version="1.1" viewBox="0 0 1200 1200" xmlns="http://www.w3.org/2000/svg">
 <g>
  <path d="m765.6 534h-537.6c-36 0-66 30-66 66s30 66 66 66h538.8c36 0 66-30 66-66-1.1992-37.199-30-66-67.199-66z"/>
  <path d="m975.6 156h-747.6c-36 0-66 30-66 66s30 66 66 66h748.8c36 0 66-30 66-66-1.1992-36-30-66-67.199-66z"/>
  <path d="m975.6 910.8h-747.6c-36 0-66 30-66 66s30 66 66 66h748.8c36 0 66-30 66-66-1.1992-36-30-66-67.199-66z"/>
 </g>
</svg>
