<?xml version="1.0" encoding="UTF-8"?>
<svg width="40px" height="40px" version="1.1" viewBox="0 0 1200 1200" xmlns="http://www.w3.org/2000/svg">
 <g>
  <path d="m754.73 560h-309.47c-12.625 47.984-2.2773 99.109 28.016 138.41 30.293 39.293 77.102 62.312 126.72 62.312s96.426-23.02 126.72-62.312c30.293-39.297 40.641-90.422 28.016-138.41zm-168.93 45.801c1.9062-1.8086 4.1445-3.2344 6.5898-4.1992 3.6445-1.5391 7.6602-1.9609 11.543-1.2109 3.8828 0.74609 7.4531 2.6289 10.266 5.4102 3.6523 3.8359 5.7227 8.9062 5.8008 14.199-0.066406 6.6484-3.3984 12.84-8.9141 16.555-5.5156 3.7148-12.508 4.4766-18.691 2.0391-2.3906-1.1562-4.6094-2.6328-6.5938-4.3945-3.7656-3.7617-5.8555-8.8789-5.8008-14.199 0.074219-5.2969 2.1445-10.367 5.8008-14.199zm-65.801 34.199c-5.3203 0.050781-10.438-2.0391-14.199-5.8008s-5.8516-8.8789-5.8008-14.199c0-7.1445 3.8125-13.746 10-17.32 6.1875-3.5742 13.812-3.5742 20 0 6.1875 3.5742 10 10.176 10 17.32 0.050781 5.3203-2.0391 10.438-5.8008 14.199s-8.8789 5.8516-14.199 5.8008zm120 80h-80c-7.1445 0-13.746-3.8125-17.32-10-3.5742-6.1875-3.5742-13.812 0-20 3.5742-6.1875 10.176-10 17.32-10h80c7.1445 0 13.746 3.8125 17.32 10 3.5742 6.1875 3.5742 13.812 0 20-3.5742 6.1875-10.176 10-17.32 10zm54.199-85.801c-3.75 3.7852-8.8555 5.9141-14.184 5.918-5.3281 0.003906-10.438-2.1172-14.195-5.8945-3.7539-3.7773-5.8516-8.8945-5.8203-14.223 0-7.1445 3.8125-13.746 10-17.32 6.1875-3.5742 13.812-3.5742 20 0 6.1875 3.5742 10 10.176 10 17.32 0.050781 5.3203-2.0391 10.438-5.8008 14.199z"/>
  <path d="m524.96 869.82c-46.406-13.117-88.672-37.906-122.77-72-34.098-34.098-58.891-76.363-72.012-122.77-1.0938-4.2773-3.5703-8.0742-7.0469-10.797-3.4766-2.7266-7.7578-4.2227-12.172-4.2617h-163.72c-6.0234 0.003906-11.738 2.668-15.605 7.2852-3.6836 4.2891-5.2617 9.9961-4.2969 15.566 17.043 97.16 63.605 186.71 133.36 256.46 69.75 69.75 159.3 116.32 256.46 133.36 5.5703 0.94531 11.27-0.63672 15.555-4.3164 4.625-3.8633 7.2969-9.5781 7.2969-15.605v-163.71c-0.035156-4.4141-1.5312-8.6914-4.25-12.168-2.7227-3.4766-6.5156-5.9531-10.789-7.0508zm-150.82-15.273c-3.75 3.75-8.8359 5.8555-14.137 5.8594-5.3008 0.003906-10.391-2.0977-14.145-5.8398-36.211-36.211-64.391-79.637-82.707-127.46-2.5234-6.6758-1.2969-14.191 3.2188-19.723 4.5117-5.5273 11.633-8.2344 18.68-7.1016 7.0469 1.1367 12.957 5.9414 15.504 12.605 16.285 42.539 41.352 81.164 73.566 113.36 3.75 3.75 5.8594 8.8359 5.8633 14.145 0.003906 5.3047-2.0977 10.395-5.8438 14.152z"/>
  <path d="m147.24 540h163.72c4.4102-0.035156 8.6875-1.5312 12.164-4.25 3.4727-2.7227 5.9492-6.5156 7.043-10.789 13.121-46.406 37.918-88.676 72.016-122.78 34.102-34.098 76.375-58.891 122.78-72.008 4.2734-1.0977 8.0664-3.5742 10.789-7.0508 2.7188-3.4766 4.2148-7.7539 4.25-12.168v-163.71c0-6.0273-2.6719-11.742-7.2969-15.605-3.418-2.9375-7.7656-4.5703-12.273-4.6094-1.1016 0.003906-2.2031 0.10156-3.293 0.29297-97.156 17.043-186.7 63.609-256.45 133.36-69.75 69.75-116.31 159.3-133.35 256.46-0.96484 5.5703 0.61328 11.277 4.293 15.566 3.8711 4.6172 9.5859 7.2812 15.609 7.2852zm159.38-266.68c48.27-43.449 105.49-75.781 167.62-94.707 6.8359-2.0625 14.254-0.32031 19.461 4.5703 5.2031 4.8945 7.4023 12.188 5.7695 19.141-1.6328 6.9531-6.8516 12.508-13.688 14.57-56.488 17.234-108.51 46.641-152.4 86.152-5.3125 4.7812-12.77 6.3633-19.562 4.1562-6.7969-2.2109-11.895-7.875-13.379-14.863-1.4844-6.9922 0.87109-14.238 6.1836-19.02z"/>
  <path d="m675.04 330.18c46.406 13.117 88.672 37.906 122.77 72 34.098 34.098 58.891 76.363 72.012 122.77 1.0938 4.2773 3.5703 8.0742 7.0469 10.797 3.4766 2.7266 7.7578 4.2227 12.172 4.2617h163.72c6.0234-0.003906 11.738-2.668 15.605-7.2852 3.6836-4.2891 5.2617-9.9961 4.2969-15.566-17.039-97.16-63.602-186.71-133.35-256.46-69.75-69.75-159.3-116.32-256.46-133.36-1.082-0.19141-2.1797-0.28906-3.2812-0.29297-4.5078 0.039062-8.8555 1.6719-12.273 4.6094-4.625 3.8633-7.2969 9.5781-7.2969 15.605v163.71c0.035156 4.4141 1.5312 8.6914 4.25 12.168 2.7227 3.4766 6.5156 5.9531 10.789 7.0508zm25.812-138.2c1.5312-5.0781 5.0195-9.3359 9.6914-11.844 4.6758-2.5039 10.152-3.0508 15.23-1.5156 62.125 18.926 119.34 51.258 167.61 94.707 5.3125 4.7812 7.668 12.027 6.1836 19.02-1.4844 6.9883-6.582 12.652-13.379 14.863-6.793 2.207-14.25 0.625-19.562-4.1562-43.891-39.512-95.914-68.918-152.4-86.152-5.0781-1.5312-9.3398-5.0156-11.852-9.6914-2.5078-4.6719-3.0586-10.152-1.5273-15.23z"/>
  <path d="m600 440c-57.09 0.070312-109.81 30.555-138.35 80h276.7c-28.539-49.445-81.262-79.93-138.35-80z"/>
  <path d="m600 0c-159.13 0-311.74 63.215-424.27 175.73-112.52 112.52-175.73 265.14-175.73 424.27s63.215 311.74 175.73 424.27c112.52 112.52 265.14 175.73 424.27 175.73s311.74-63.215 424.27-175.73c112.52-112.52 175.73-265.14 175.73-424.27-0.17969-159.07-63.453-311.58-175.93-424.07-112.48-112.48-264.99-175.75-424.07-175.93zm20 147.25c-0.011719-17.832 7.875-34.75 21.531-46.211 13.312-11.305 30.961-16.113 48.164-13.125 105.28 18.469 202.31 68.926 277.89 144.51 75.578 75.582 126.03 172.62 144.49 277.89 2.9688 17.195-1.8281 34.824-13.105 48.145-11.457 13.664-28.375 21.555-46.211 21.543h-163.72c-13.133-0.10156-25.875-4.4805-36.293-12.473-10.422-7.9922-17.949-19.168-21.449-31.824-11.254-39.789-32.516-76.027-61.754-105.27-29.238-29.234-65.48-50.496-105.27-61.746-12.656-3.4961-23.824-11.027-31.816-21.445-7.9883-10.418-12.363-23.16-12.461-36.289zm-532.08 363.07c18.461-105.28 68.914-202.31 144.49-277.89 75.578-75.582 172.61-126.04 277.88-144.51 17.211-2.9883 34.859 1.8203 48.176 13.125 13.656 11.461 21.543 28.379 21.531 46.211v163.71c-0.097656 13.129-4.4727 25.871-12.461 36.289-7.9922 10.418-19.16 17.949-31.816 21.445-39.793 11.254-76.035 32.516-105.28 61.754-29.238 29.242-50.5 65.484-61.754 105.28-3.5 12.652-11.031 23.82-21.449 31.812-10.418 7.9883-23.156 12.367-36.285 12.465h-163.72c-17.832 0.011719-34.754-7.8789-46.211-21.543-11.277-13.32-16.074-30.949-13.105-48.145zm492.08 542.44c0.011719 17.832-7.875 34.75-21.531 46.211-10.66 9.0156-24.168 13.969-38.125 13.984-3.3672 0.003906-6.7266-0.28516-10.043-0.85938-105.28-18.469-202.31-68.926-277.89-144.51-75.578-75.582-126.03-172.62-144.49-277.89-2.9688-17.195 1.8281-34.824 13.105-48.145 11.457-13.664 28.375-21.555 46.211-21.543h163.72c13.133 0.10156 25.875 4.4805 36.293 12.473 10.422 7.9922 17.949 19.168 21.449 31.824 11.254 39.789 32.516 76.027 61.754 105.27 29.238 29.234 65.48 50.496 105.27 61.746 12.656 3.4961 23.824 11.027 31.816 21.445 7.9883 10.418 12.363 23.16 12.461 36.289zm-180-452.75c0-53.043 21.07-103.91 58.578-141.42s88.379-58.578 141.42-58.578 103.91 21.07 141.42 58.578 58.578 88.379 58.578 141.42-21.07 103.91-58.578 141.42-88.379 58.578-141.42 58.578c-53.023-0.0625-103.86-21.152-141.36-58.645-37.492-37.496-58.582-88.332-58.645-141.36zm712.08 89.688c-18.461 105.28-68.914 202.31-144.49 277.89-75.578 75.582-172.61 126.04-277.88 144.51-3.3203 0.57812-6.6797 0.86328-10.051 0.85938-13.957-0.011719-27.465-4.9688-38.125-13.984-13.656-11.461-21.543-28.379-21.531-46.211v-163.71c0.097656-13.129 4.4727-25.871 12.461-36.289 7.9922-10.418 19.16-17.949 31.816-21.445 39.793-11.254 76.035-32.516 105.28-61.754 29.238-29.242 50.5-65.484 61.754-105.28 3.5-12.652 11.031-23.82 21.449-31.812 10.418-7.9883 23.156-12.367 36.285-12.465h163.72c17.832-0.011719 34.754 7.8789 46.211 21.543 11.277 13.32 16.074 30.949 13.105 48.145z"/>
  <path d="m1052.8 660h-163.72c-4.4102 0.035156-8.6875 1.5312-12.164 4.25-3.4727 2.7227-5.9492 6.5156-7.043 10.789-13.121 46.406-37.918 88.676-72.016 122.78-34.102 34.098-76.375 58.891-122.78 72.008-4.2734 1.0977-8.0664 3.5742-10.789 7.0508-2.7188 3.4766-4.2148 7.7539-4.25 12.168v163.71c0 6.0273 2.6719 11.742 7.2969 15.605 4.2812 3.6953 9.9922 5.2812 15.566 4.3164 97.156-17.047 186.7-63.613 256.45-133.37 69.75-69.75 116.31-159.3 133.35-256.46 0.96484-5.5703-0.61328-11.277-4.293-15.566-3.8711-4.6172-9.5859-7.2812-15.609-7.2852zm-114.06 67.109h0.003906c-18.316 47.82-46.496 91.25-82.707 127.46-5.0625 5.0195-12.418 6.9648-19.305 5.1055-6.8828-1.8594-12.258-7.2461-14.105-14.133-1.8438-6.8906 0.11719-14.238 5.1484-19.293 32.215-32.199 57.281-70.824 73.562-113.36 2.5508-6.668 8.4609-11.473 15.508-12.605 7.0469-1.1367 14.168 1.5703 18.68 7.1016 4.5156 5.5273 5.7383 13.043 3.2188 19.723z"/>
 </g>
</svg>
